<?xml version="1.0" encoding="UTF-8"?>
<svg width="auto" height="auto" viewBox="0 0 212 213" version="1.1" xmlns="http://www.w3.org/2000/svg" xmlns:xlink="http://www.w3.org/1999/xlink">
    <defs>
        <path d="M139.2064,52.8675998 C149.142593,52.8675998 157.860764,58.082576 162.77316,65.9247771 L56.0452392,65.9247771 C60.9576357,58.082576 69.6758062,52.8675998 79.6119998,52.8675998 L139.2064,52.8675998 Z" id="path-10"></path>
    </defs>
    <g id="happy" stroke="none" stroke-width="1" fill="none" fill-rule="evenodd" transform="translate(0.000000, 0.000000)">
        <g id="Group" transform="translate(16.000000, 7.000000)">
            <path d="M52.2287998,0 L83.6999997,0 C112.545169,-5.2987717e-15 135.928799,23.3836302 135.928799,52.2287998 L135.928799,197.160002 L135.928799,197.160002 L52.2287998,197.160002 C23.3836302,197.160002 4.39663649e-13,173.776371 4.36131135e-13,144.931202 L4.36131135e-13,52.2287998 C4.3259862e-13,23.3836302 23.3836302,5.2987717e-15 52.2287998,0 Z" id="Rectangle-Copy-10" fill="#3D3D3D"></path>
            <path d="M128.563199,27.9000002 L141.285599,27.9000002 C162.734572,27.9000002 180.122399,45.2878278 180.122399,66.7368001 L180.122399,158.323202 C180.122399,179.772174 162.734572,197.160002 141.285599,197.160002 L128.563199,197.160002 C107.114227,197.160002 89.7263997,179.772174 89.7263997,158.323202 L89.7263997,66.7368001 C89.7263997,45.2878278 107.114227,27.9000002 128.563199,27.9000002 Z" id="Rectangle-Copy-91" fill="#3D3D3D"></path>
            <path d="M63.6119998,45.8675998 L123.2064,45.8675998 C138.553509,45.8675998 150.994799,58.3088902 150.994799,73.6559997 L150.994799,136.263599 C150.994799,151.610709 138.553509,164.051999 123.2064,164.051999 L63.6119998,164.051999 C48.2648903,164.051999 35.8235999,151.610709 35.8235999,136.263599 L35.8235999,73.6559997 C35.8235999,58.3088902 48.2648903,45.8675998 63.6119998,45.8675998 Z" id="Mask-Copy12" fill="#A56644"></path>
            <path d="M90.0611996,112.158 L97.0919996,112.158 C100.420288,112.158 103.1184,114.856111 103.1184,118.1844 C103.1184,121.512688 100.420288,124.2108 97.0919996,124.2108 L90.0611996,124.2108 C86.7329108,124.2108 84.0347997,121.512688 84.0347997,118.1844 C84.0347997,114.856111 86.7329108,112.158 90.0611996,112.158 Z" id="Rectangle-Copy-24" fill="#87401A"></path>
            <polygon id="Triangle-Copy" fill="#87401A" points="93.4091996 105.462 101.1096 117.8496 85.7087997 117.8496"></polygon>
            <path d="M74.3757982,72.6515997 C83.0940539,72.6515997 90.1615965,79.7191424 90.1615965,88.4373981 L90.1615965,98.0394735 C90.1615965,106.757729 83.0940539,113.825272 74.3757982,113.825272 C65.6575424,113.825272 58.5899998,106.757729 58.5899998,98.0394735 L58.5899998,88.4373981 C58.5899998,79.7191424 65.6575424,72.6515997 74.3757982,72.6515997 Z" id="Rectangle-130-Copy-44" fill="#FFFFFF"></path>
            <path d="M78.3993881,82.0259997 C82.3134237,82.0259997 85.4863765,85.1989525 85.4863765,89.1129881 L85.4863765,98.014366 C85.4863765,101.928402 82.3134237,105.101354 78.3993881,105.101354 C74.4853525,105.101354 71.3123997,101.928402 71.3123997,98.014366 L71.3123997,89.1129881 C71.3123997,85.1989525 74.4853525,82.0259997 78.3993881,82.0259997 Z" id="Combined-Shape-Copy" fill="#3D3D3D"></path>
            <path d="M112.541906,72.6515997 C121.260162,72.6515997 128.327704,79.7191424 128.327704,88.4373981 L128.327704,98.0394735 C128.327704,106.757729 121.260162,113.825272 112.541906,113.825272 C103.82365,113.825272 96.7561075,106.757729 96.7561075,98.0394735 L96.7561075,88.4373981 C96.7561075,79.7191424 103.82365,72.6515997 112.541906,72.6515997 Z" id="Rectangle-130-Copy-45" fill="#FFFFFF" transform="translate(112.541906, 93.238436) scale(-1, 1) translate(-112.541906, -93.238436) "></path>
            <path d="M109.522716,82.0259997 C113.436752,82.0259997 116.609704,85.1989525 116.609704,89.1129881 L116.609704,98.014366 C116.609704,101.928402 113.436752,105.101354 109.522716,105.101354 C105.60868,105.101354 102.435728,101.928402 102.435728,98.014366 L102.435728,89.1129881 C102.435728,85.1989525 105.60868,82.0259997 109.522716,82.0259997 Z" id="Mask-Copy-22" fill="#3D3D3D" transform="translate(109.522716, 93.563677) scale(-1, 1) translate(-109.522716, -93.563677) "></path>
            <path d="M98.5379948,88.4629695 C99.515256,89.2531525 100.759361,89.7263997 102.114,89.7263997 C105.257383,89.7263997 107.8056,87.1781835 107.8056,84.0347997 C107.8056,80.8914158 105.257383,78.3431997 102.114,78.3431997 C98.8697068,84.3941095 97.6777053,87.7673661 98.5379948,88.4629695 Z" id="Path1" fill="#FFFFFF"></path>
            <circle id="Oval-Copy-21" fill="#FFFFFF" transform="translate(71.982000, 83.365200) scale(-1, 1) translate(-71.982000, -83.365200) " cx="71.9819997" cy="83.3651997" r="5.69159998"></circle>
            <path d="M87.4149443,140.16935 C78.8686943,140.035925 72.9538943,135.789893 69.6705444,127.44695" id="Path-Copy-193" stroke="#FFFFFF" stroke-width="17.7604871" stroke-linecap="round" stroke-linejoin="round" transform="translate(78.542744, 133.808150) rotate(-6.000000) translate(-78.542744, -133.808150) "></path>
            <path d="M82.3607997,115.8408 C66.9147781,109.385219 56.2011781,105.925619 50.2199998,105.462" id="Path-10-Copy" stroke="#A56644" stroke-width="5.02199998"></path>
        </g>
        <mask id="mask-1" fill="white">
            <use xlink:href="#path-10"></use>
        </mask>
        <use id="Combined-Shape2" fill="#FFB100" xlink:href="#path-12"></use>
        <path d="M67.5591998,35.7927999 C78.098781,35.7927999 86.6427997,44.3368186 86.6427997,54.8763998 L86.6427997,71.2815997 C86.6427997,81.821181 78.098781,90.3651997 67.5591998,90.3651997 C57.0196186,90.3651997 48.4755999,81.821181 48.4755999,71.2815997 L48.4755999,54.8763998 C48.4755999,44.3368186 57.0196186,35.7927999 67.5591998,35.7927999 Z" id="Rectangle-Copy-23" fill="#3D3D3D"></path>
        <path d="M91.1999999,171 L127.559999,171 C131.53645,171 134.759999,174.22355 134.759999,178.2 L134.759999,204.160002 L134.759999,204.160002 L84,204.160002 L84,178.2 C84,174.22355 87.2235498,171 91.1999999,171 Z" id="Rectangle-Copy-4" fill="#FFB100"></path>
    </g>
</svg>
